<svg xmlns="http://www.w3.org/2000/svg" viewBox="0 0 32 32">
  <defs>
    <linearGradient id="bg" x1="0%" y1="0%" x2="100%" y2="100%">
      <stop offset="0%" stop-color="#3b82f6"/>
      <stop offset="100%" stop-color="#1d4ed8"/>
    </linearGradient>
  </defs>
  <!-- Rounded square background -->
  <rect width="32" height="32" rx="7" fill="url(#bg)"/>
  <!-- Hub icon: central node with radiating connections -->
  <!-- Central circle -->
  <circle cx="16" cy="16" r="4" fill="white" opacity="0.95"/>
  <!-- Connection lines -->
  <line x1="16" y1="12" x2="16" y2="5" stroke="white" stroke-width="1.5" stroke-linecap="round" opacity="0.7"/>
  <line x1="19.5" y1="13.5" x2="25" y2="8" stroke="white" stroke-width="1.5" stroke-linecap="round" opacity="0.7"/>
  <line x1="20" y1="16" x2="27" y2="16" stroke="white" stroke-width="1.5" stroke-linecap="round" opacity="0.7"/>
  <line x1="19.5" y1="18.5" x2="24" y2="23" stroke="white" stroke-width="1.5" stroke-linecap="round" opacity="0.7"/>
  <line x1="16" y1="20" x2="16" y2="27" stroke="white" stroke-width="1.5" stroke-linecap="round" opacity="0.7"/>
  <line x1="12.5" y1="18.5" x2="8" y2="23" stroke="white" stroke-width="1.5" stroke-linecap="round" opacity="0.7"/>
  <line x1="12" y1="16" x2="5" y2="16" stroke="white" stroke-width="1.5" stroke-linecap="round" opacity="0.7"/>
  <line x1="12.5" y1="13.5" x2="7" y2="8" stroke="white" stroke-width="1.5" stroke-linecap="round" opacity="0.7"/>
  <!-- Outer nodes -->
  <circle cx="16" cy="5" r="2" fill="white" opacity="0.9"/>
  <circle cx="25" cy="8" r="2" fill="white" opacity="0.9"/>
  <circle cx="27" cy="16" r="2" fill="white" opacity="0.9"/>
  <circle cx="24" cy="23" r="2" fill="white" opacity="0.9"/>
  <circle cx="16" cy="27" r="2" fill="white" opacity="0.9"/>
  <circle cx="8" cy="23" r="2" fill="white" opacity="0.9"/>
  <circle cx="5" cy="16" r="2" fill="white" opacity="0.9"/>
  <circle cx="7" cy="8" r="2" fill="white" opacity="0.9"/>
</svg>
