<svg xmlns="http://www.w3.org/2000/svg" viewBox="0 0 32 32" role="img" aria-label="The AI Resource Hub">
  <defs>
    <linearGradient id="frame" x1="6" y1="4" x2="26" y2="28" gradientUnits="userSpaceOnUse">
      <stop offset="0%" stop-color="#ef8c53"/>
      <stop offset="100%" stop-color="#c66c2f"/>
    </linearGradient>
    <radialGradient id="glow" cx="0" cy="0" r="1" gradientTransform="translate(11 10) rotate(45) scale(19)">
      <stop offset="0%" stop-color="#ef8c53" stop-opacity="0.34"/>
      <stop offset="55%" stop-color="#9f2f22" stop-opacity="0.18"/>
      <stop offset="100%" stop-color="#12100f" stop-opacity="0"/>
    </radialGradient>
    <linearGradient id="panel" x1="7" y1="6" x2="25" y2="26" gradientUnits="userSpaceOnUse">
      <stop offset="0%" stop-color="#1d1815"/>
      <stop offset="100%" stop-color="#12100f"/>
    </linearGradient>
  </defs>
  <rect width="32" height="32" rx="8" fill="#0f0c0a"/>
  <rect x="1.25" y="1.25" width="29.5" height="29.5" rx="6.75" fill="url(#panel)" stroke="#fffaf0" stroke-opacity="0.12" stroke-width="0.5"/>
  <rect x="2.1" y="2.1" width="27.8" height="27.8" rx="6" fill="url(#glow)" opacity="0.95"/>
  <path d="M6.5 10.25H25.5" stroke="#fffaf0" stroke-opacity="0.08" stroke-width="0.75"/>
  <path d="M6.5 21.75H25.5" stroke="#fffaf0" stroke-opacity="0.08" stroke-width="0.75"/>
  <circle cx="16" cy="16" r="6.2" fill="none" stroke="url(#frame)" stroke-width="1.4" opacity="0.92"/>
  <circle cx="16" cy="16" r="2.55" fill="#fff7eb"/>
  <path d="M16 13.45V8.2" stroke="#ef8c53" stroke-width="1.45" stroke-linecap="round" opacity="0.9"/>
  <path d="M18.55 16H23.8" stroke="#ef8c53" stroke-width="1.45" stroke-linecap="round" opacity="0.9"/>
  <path d="M16 18.55V23.8" stroke="#ef8c53" stroke-width="1.45" stroke-linecap="round" opacity="0.9"/>
  <path d="M13.45 16H8.2" stroke="#ef8c53" stroke-width="1.45" stroke-linecap="round" opacity="0.9"/>
  <circle cx="16" cy="7.35" r="1.8" fill="#ffbe7a"/>
  <circle cx="24.65" cy="16" r="1.8" fill="#ffbe7a"/>
  <circle cx="16" cy="24.65" r="1.8" fill="#ffbe7a"/>
  <circle cx="7.35" cy="16" r="1.8" fill="#ffbe7a"/>
  <circle cx="23.1" cy="8.9" r="1.2" fill="#fff7eb" opacity="0.92"/>
  <path d="M19.65 12.35L22.2 9.8" stroke="#fff7eb" stroke-width="1.1" stroke-linecap="round" opacity="0.74"/>
</svg>
