<svg xmlns="http://www.w3.org/2000/svg" width="1200" height="630" viewBox="0 0 1200 630">
  <defs>
    <linearGradient id="bg" x1="120" y1="60" x2="1080" y2="570" gradientUnits="userSpaceOnUse">
      <stop offset="0%" stop-color="#17120f"/>
      <stop offset="100%" stop-color="#0f0c0a"/>
    </linearGradient>
    <linearGradient id="accent" x1="160" y1="96" x2="1030" y2="530" gradientUnits="userSpaceOnUse">
      <stop offset="0%" stop-color="#ef8c53"/>
      <stop offset="100%" stop-color="#c66c2f"/>
    </linearGradient>
    <radialGradient id="glowA" cx="0" cy="0" r="1" gradientTransform="translate(240 134) rotate(28) scale(340 260)">
      <stop offset="0%" stop-color="#ef8c53" stop-opacity="0.22"/>
      <stop offset="100%" stop-color="#ef8c53" stop-opacity="0"/>
    </radialGradient>
    <radialGradient id="glowB" cx="0" cy="0" r="1" gradientTransform="translate(1000 150) rotate(136) scale(300 250)">
      <stop offset="0%" stop-color="#9f2f22" stop-opacity="0.24"/>
      <stop offset="100%" stop-color="#9f2f22" stop-opacity="0"/>
    </radialGradient>
  </defs>
  <rect width="1200" height="630" fill="url(#bg)"/>
  <rect x="0" y="0" width="1200" height="6" fill="url(#accent)"/>
  <rect x="90" y="82" width="1020" height="466" rx="34" fill="#fffaf0" fill-opacity="0.02" stroke="#fffaf0" stroke-opacity="0.08"/>
  <rect x="90" y="82" width="1020" height="466" rx="34" fill="url(#glowA)"/>
  <rect x="90" y="82" width="1020" height="466" rx="34" fill="url(#glowB)"/>
  <g opacity="0.08" stroke="#fff7eb" stroke-width="1">
    <line x1="140" y1="82" x2="140" y2="548"/>
    <line x1="300" y1="82" x2="300" y2="548"/>
    <line x1="460" y1="82" x2="460" y2="548"/>
    <line x1="620" y1="82" x2="620" y2="548"/>
    <line x1="780" y1="82" x2="780" y2="548"/>
    <line x1="940" y1="82" x2="940" y2="548"/>
    <line x1="1100" y1="82" x2="1100" y2="548"/>
    <line x1="90" y1="198" x2="1110" y2="198"/>
    <line x1="90" y1="314" x2="1110" y2="314"/>
    <line x1="90" y1="430" x2="1110" y2="430"/>
  </g>
  <text x="150" y="154" font-family="IBM Plex Sans, system-ui, sans-serif" font-size="18" font-weight="700" letter-spacing="5" fill="#9d8875">INDEPENDENT AI REFERENCE DESK</text>
  <text x="150" y="252" font-family="Georgia, 'Times New Roman', serif" font-size="76" font-weight="700" fill="#f6efe4">The AI Resource Hub</text>
  <text x="150" y="320" font-family="IBM Plex Sans, system-ui, sans-serif" font-size="29" fill="#cbb9a5">Meta leaderboard, AGI progress, daily digest, and model intelligence in one place.</text>
  <g transform="translate(150 378)">
    <rect x="0" y="0" width="220" height="44" rx="22" fill="#ef8c53" fill-opacity="0.12" stroke="#ef8c53" stroke-opacity="0.18"/>
    <text x="110" y="28" font-family="IBM Plex Sans, system-ui, sans-serif" font-size="17" font-weight="600" fill="#ffbe7a" text-anchor="middle">Meta leaderboard</text>
    <rect x="238" y="0" width="190" height="44" rx="22" fill="#fffaf0" fill-opacity="0.04" stroke="#fffaf0" stroke-opacity="0.08"/>
    <text x="333" y="28" font-family="IBM Plex Sans, system-ui, sans-serif" font-size="17" font-weight="600" fill="#f6efe4" text-anchor="middle">AGI progress</text>
    <rect x="446" y="0" width="176" height="44" rx="22" fill="#fffaf0" fill-opacity="0.04" stroke="#fffaf0" stroke-opacity="0.08"/>
    <text x="534" y="28" font-family="IBM Plex Sans, system-ui, sans-serif" font-size="17" font-weight="600" fill="#f6efe4" text-anchor="middle">Daily digest</text>
  </g>
  <g transform="translate(812 160)">
    <rect x="0" y="0" width="188" height="188" rx="38" fill="#14100e" stroke="#fffaf0" stroke-opacity="0.1"/>
    <circle cx="94" cy="94" r="56" fill="none" stroke="url(#accent)" stroke-width="10" opacity="0.92"/>
    <circle cx="94" cy="94" r="22" fill="#fff7eb"/>
    <path d="M94 71V28" stroke="#ef8c53" stroke-width="10" stroke-linecap="round" opacity="0.9"/>
    <path d="M117 94H160" stroke="#ef8c53" stroke-width="10" stroke-linecap="round" opacity="0.9"/>
    <path d="M94 117V160" stroke="#ef8c53" stroke-width="10" stroke-linecap="round" opacity="0.9"/>
    <path d="M71 94H28" stroke="#ef8c53" stroke-width="10" stroke-linecap="round" opacity="0.9"/>
    <circle cx="94" cy="16" r="14" fill="#ffbe7a"/>
    <circle cx="172" cy="94" r="14" fill="#ffbe7a"/>
    <circle cx="94" cy="172" r="14" fill="#ffbe7a"/>
    <circle cx="16" cy="94" r="14" fill="#ffbe7a"/>
    <circle cx="154" cy="34" r="9" fill="#fff7eb" opacity="0.92"/>
    <path d="M124 64L145 43" stroke="#fff7eb" stroke-width="6" stroke-linecap="round" opacity="0.74"/>
  </g>
  <g transform="translate(770 388)">
    <text x="0" y="0" font-family="IBM Plex Sans, system-ui, sans-serif" font-size="18" font-weight="700" letter-spacing="4" fill="#9d8875">WHAT YOU SEE FIRST</text>
    <text x="0" y="52" font-family="Georgia, 'Times New Roman', serif" font-size="40" font-weight="700" fill="#f6efe4">Best models now.</text>
    <text x="0" y="98" font-family="Georgia, 'Times New Roman', serif" font-size="40" font-weight="700" fill="#f6efe4">Frontier progress.</text>
    <text x="0" y="144" font-family="Georgia, 'Times New Roman', serif" font-size="40" font-weight="700" fill="#f6efe4">What changed today.</text>
  </g>
  <text x="150" y="510" font-family="IBM Plex Sans, system-ui, sans-serif" font-size="18" fill="#9d8875">theairesourcehub.com</text>
</svg>
